<svg id="Layer_1" data-name="Layer 1" xmlns="http://www.w3.org/2000/svg" xmlns:xlink="http://www.w3.org/1999/xlink" viewBox="0 0 542.76 720.43"><defs><style>.cls-1{fill:url(#linear-gradient);}.cls-2{fill:url(#linear-gradient-2);}.cls-3{fill:url(#linear-gradient-3);}.cls-4{fill:url(#linear-gradient-4);}.cls-5{fill:url(#linear-gradient-5);}.cls-6{fill:url(#linear-gradient-6);}.cls-7{fill:url(#linear-gradient-7);}.cls-8{fill:url(#linear-gradient-8);}.cls-9{fill:url(#linear-gradient-9);}.cls-10{fill:url(#linear-gradient-10);}.cls-11{fill:url(#linear-gradient-11);}.cls-12{fill:url(#linear-gradient-12);}.cls-13{fill:url(#linear-gradient-13);}.cls-14,.cls-15{fill:none;}.cls-15{clip-rule:evenodd;}.cls-16{clip-path:url(#clip-path);}.cls-17{fill:url(#linear-gradient-14);}.cls-18{mask:url(#mask);}.cls-19{fill:#154a8e;}.cls-20{mask:url(#mask-2);}.cls-21{fill:#f7f4bb;}.cls-22{mask:url(#mask-3);}.cls-23{clip-path:url(#clip-path-2);}.cls-24{fill:url(#linear-gradient-15);}.cls-25{mask:url(#mask-4);}.cls-26{fill:#da3d79;}.cls-27{mask:url(#mask-5);}.cls-28{mask:url(#mask-6);}.cls-29{fill:#fdf5a5;}.cls-30{mask:url(#mask-7);}.cls-31{clip-path:url(#clip-path-3);}.cls-32{fill:url(#linear-gradient-16);}.cls-33{mask:url(#mask-8);}.cls-34{fill:#2c469c;}.cls-34,.cls-38,.cls-44,.cls-46{fill-rule:evenodd;}.cls-35{clip-path:url(#clip-path-4);}.cls-36{fill:url(#linear-gradient-17);}.cls-37{mask:url(#mask-9);}.cls-38{fill:#c0e6ee;}.cls-39{mask:url(#mask-10);}.cls-40{mask:url(#mask-11);}.cls-41{clip-path:url(#clip-path-5);}.cls-42{fill:url(#linear-gradient-18);}.cls-43{mask:url(#mask-12);}.cls-44{fill:#f7e7f1;}.cls-45{mask:url(#mask-13);}.cls-46{fill:#6f2c8b;}</style><linearGradient id="linear-gradient" x1="243.96" y1="662.82" x2="211.29" y2="653.94" gradientTransform="translate(312.76 -471.4)" gradientUnits="userSpaceOnUse"><stop offset="0" stop-color="#fff"/><stop offset="1"/></linearGradient><linearGradient id="linear-gradient-2" x1="-211.95" y1="1023.06" x2="463.22" y2="347.89" gradientTransform="translate(293.87 -460.78)" xlink:href="#linear-gradient"/><linearGradient id="linear-gradient-3" x1="79.61" y1="1432.14" x2="256.57" y2="771.72" gradientTransform="translate(306.3 -449.03)" xlink:href="#linear-gradient"/><linearGradient id="linear-gradient-4" x1="-92.61" y1="1354.44" x2="205.59" y2="241.31" gradientTransform="translate(299.42 -449.76)" xlink:href="#linear-gradient"/><linearGradient id="linear-gradient-5" x1="108.07" y1="294.71" x2="-111.76" y2="1115.5" gradientTransform="translate(299.42 -447.92)" xlink:href="#linear-gradient"/><linearGradient id="linear-gradient-6" x1="681.83" y1="417.83" x2="-201.84" y2="927.94" gradientTransform="translate(296.71 -461.33)" xlink:href="#linear-gradient"/><linearGradient id="linear-gradient-7" x1="15.57" y1="1026.19" x2="187.25" y2="854.7" gradientTransform="translate(299.23 -450.03)" xlink:href="#linear-gradient"/><linearGradient id="linear-gradient-8" x1="2.25" y1="1130.18" x2="-5.69" y2="1116.39" gradientTransform="translate(299.42 -450.03)" xlink:href="#linear-gradient"/><linearGradient id="linear-gradient-9" x1="547.18" y1="415.45" x2="-765.6" y2="1728.23" gradientTransform="translate(299.08 -450.03)" xlink:href="#linear-gradient"/><linearGradient id="linear-gradient-10" x1="8.72" y1="1388.28" x2="258.77" y2="454.94" gradientTransform="translate(301.09 -450.3)" xlink:href="#linear-gradient"/><linearGradient id="linear-gradient-11" x1="84.25" y1="1134.09" x2="104.83" y2="1145.99" gradientTransform="translate(305.12 -448.39)" xlink:href="#linear-gradient"/><linearGradient id="linear-gradient-12" x1="133.55" y1="876.17" x2="187.17" y2="907.14" gradientTransform="translate(308.61 -461.96)" xlink:href="#linear-gradient"/><linearGradient id="linear-gradient-13" x1="348.29" y1="747.55" x2="11.75" y2="1330.36" gradientTransform="translate(305.12 -447.53)" xlink:href="#linear-gradient"/><clipPath id="clip-path" transform="translate(-153.04 -14.05)"><path class="cls-14" d="M298,469.8c-90.3-32.89-59.59-151.88,19.73-238.4,97.07-105.87,270.12-86.65,201.95,48.07,38.86-63.4,58.65-142.49,46.5-182.63-132-82.79-381.46,93-401.6,252.2C153,440.2,201.79,506.49,298,469.8"/></clipPath><linearGradient id="linear-gradient-14" x1="476.37" y1="177.52" x2="-86.05" y2="326.72" gradientUnits="userSpaceOnUse"><stop offset="0" stop-color="#0b77bd"/><stop offset="0.45" stop-color="#44bfb8"/><stop offset="1" stop-color="#c4d837"/></linearGradient><mask id="mask" x="366.63" y="82.78" width="50.07" height="182.63" maskUnits="userSpaceOnUse"><g transform="translate(-153.04 -14.05)"><rect class="cls-1" x="519.67" y="96.84" width="50.07" height="182.63"/></g></mask><mask id="mask-2" x="9.86" y="61.6" width="406.84" height="404.45" maskUnits="userSpaceOnUse"><g transform="translate(-153.04 -14.05)"><rect class="cls-2" x="162.91" y="75.65" width="406.84" height="404.45"/></g></mask><mask id="mask-3" x="63.44" y="109.72" width="345.15" height="346.03" maskUnits="userSpaceOnUse"><g transform="translate(-153.04 -14.05)"><rect class="cls-6" x="216.49" y="123.77" width="345.15" height="346.03"/></g></mask><clipPath id="clip-path-2" transform="translate(-153.04 -14.05)"><path class="cls-15" d="M519.67,279.47c-16.19,32-46,70.57-93.76,115.55C256.43,554.56,250.7,648.52,267.72,683.17c23.11.28,41.39-4,55.72-11.67-.61-1.51-28.57-74.82,96-192.68,65.16-61.63,276.34-271,163.24-369.75a129,129,0,0,0-16.54-12.23c12.15,40.14-7.64,119.23-46.5,182.63"/></clipPath><linearGradient id="linear-gradient-15" x1="156.43" y1="659.83" x2="452.18" y2="147.46" gradientUnits="userSpaceOnUse"><stop offset="0" stop-color="#ea569e"/><stop offset="1" stop-color="#ffcf4b"/></linearGradient><mask id="mask-4" x="111.12" y="397.49" width="158.91" height="271.67" maskUnits="userSpaceOnUse"><g transform="translate(-153.04 -14.05)"><rect class="cls-7" x="264.16" y="411.55" width="158.91" height="271.66"/></g></mask><mask id="mask-5" x="114.68" y="641.87" width="55.72" height="27.29" maskUnits="userSpaceOnUse"><g transform="translate(-153.04 -14.05)"><rect class="cls-8" x="267.72" y="655.92" width="55.72" height="27.29"/></g></mask><mask id="mask-6" x="108.24" y="82.78" width="320.76" height="586.37" maskUnits="userSpaceOnUse"><g transform="translate(-153.04 -14.05)"><rect class="cls-9" x="261.28" y="96.84" width="320.76" height="586.37"/></g></mask><mask id="mask-7" x="146.12" y="82.78" width="316.27" height="581.25" maskUnits="userSpaceOnUse"><g transform="translate(-153.04 -14.05)"><rect class="cls-10" x="299.17" y="96.84" width="316.26" height="581.25"/></g></mask><clipPath id="clip-path-3" transform="translate(-153.04 -14.05)"><path class="cls-15" d="M489.91,407.24A163.16,163.16,0,1,1,375.41,708c13.67-10.46,23.44-27.23,30.14-43.23,72.74,39.08,163-13.2,163-97.57,0-67.78-60.29-119.49-127.24-109.46,14.22-14,31.08-31.21,48.6-50.52"/></clipPath><linearGradient id="linear-gradient-16" x1="249.59" y1="911.63" x2="473.19" y2="76.7" gradientUnits="userSpaceOnUse"><stop offset="0" stop-color="#92278e"/><stop offset="0.5" stop-color="#41aae0"/><stop offset="1" stop-color="#7ccdd2"/></linearGradient><mask id="mask-8" x="222.37" y="650.73" width="40.8" height="49.26" maskUnits="userSpaceOnUse"><g transform="translate(-153.04 -14.05)"><rect class="cls-11" x="375.41" y="664.79" width="40.8" height="49.26"/></g></mask><clipPath id="clip-path-4" transform="translate(-153.04 -14.05)"><path class="cls-15" d="M404.86,666.39c.24-.52.47-1.07.69-1.6-.22.53-.45,1.08-.69,1.6M376.5,707.15a75.34,75.34,0,0,0,11.69-11.91c-.15.2-.29.4-.46.6A67.16,67.16,0,0,1,376.5,707.15Z"/></clipPath><linearGradient id="linear-gradient-17" x1="178.85" y1="892.71" x2="402.48" y2="57.69" xlink:href="#linear-gradient-16"/><mask id="mask-9" x="288.27" y="393.18" width="65.05" height="50.52" maskUnits="userSpaceOnUse"><g transform="translate(-153.04 -14.05)"><rect class="cls-12" x="441.31" y="407.24" width="65.05" height="50.52"/></g></mask><mask id="mask-10" x="222.37" y="393.18" width="245.59" height="323.13" maskUnits="userSpaceOnUse"><g transform="translate(-153.04 -14.05)"><rect class="cls-13" x="375.41" y="407.24" width="245.59" height="323.13"/></g></mask><mask id="mask-11" x="244.67" y="419.25" width="199.06" height="268.69" maskUnits="userSpaceOnUse"><g transform="translate(-153.04 -14.05)"><rect class="cls-3" x="397.71" y="433.31" width="199.06" height="268.68"/></g></mask><clipPath id="clip-path-5" transform="translate(-153.04 -14.05)"><path class="cls-15" d="M368.14,522.58c9,82-2.45,161.74-100.42,160.59,25.84,51.31,90.78,50.06,120,12.67,37.33-47.75,39.58-130.59,30.87-191-14.21-98.64-60.07-197.36-29.1-293C299.41,287.6,357.65,427,368.14,522.58"/></clipPath><linearGradient id="linear-gradient-18" x1="273.45" y1="164.42" x2="70.43" y2="921.94" gradientUnits="userSpaceOnUse"><stop offset="0" stop-color="#92278e"/><stop offset="0.49" stop-color="#cf87b9"/><stop offset="1" stop-color="#e8bdd8"/></linearGradient><mask id="mask-12" x="114.68" y="197.78" width="121.78" height="476.37" maskUnits="userSpaceOnUse"><g transform="translate(-153.04 -14.05)"><rect class="cls-4" x="267.72" y="211.84" width="121.78" height="476.37"/></g></mask><mask id="mask-13" x="48.67" y="55.94" width="155.11" height="511.08" maskUnits="userSpaceOnUse"><g transform="translate(-153.04 -14.05)"><rect class="cls-5" x="201.71" y="70" width="155.11" height="511.08"/></g></mask></defs><title>bloggy-logo</title><g class="cls-16"><rect class="cls-17" width="434.8" height="492.43"/></g><g class="cls-18"><path class="cls-19" d="M520.24,184.7c18.21,19,21.73,50.71-.57,94.77,38.86-63.4,58.65-142.49,46.5-182.63,0,0-14.15,50-45.93,87.86" transform="translate(-153.04 -14.05)"/></g><g class="cls-20"><path class="cls-21" d="M568.93,140.9c1.63-17.13.82-32.28-2.76-44.06-132-82.79-381.46,93-401.6,252.2C153,440.2,201.79,506.49,298,469.8c0,0-69.26,18.62-105.37-32.39,0,0,18.3,13.11,38.88,17.33-118.74-82.83,26.37-266.26,126.92-315.83,0,0-55.34,23.1-93.13,53.19,93.08-74,211.24-126.51,303.64-51.2" transform="translate(-153.04 -14.05)"/></g><g class="cls-22"><path class="cls-19" d="M298,469.8c-90.3-32.89-59.59-151.88,19.73-238.4,97.07-105.87,270.12-86.65,201.95,48.07a370.78,370.78,0,0,0,41.94-98.37c-.11-.15-26.22-50-131.72-42.07,0,0,50.3-14.2,95.28-4.33C395.72,89.23,263.06,193,216.93,310.6c0,0,43.32-78,107.8-116.47C237.92,255.72,145.53,453.56,298,469.8" transform="translate(-153.04 -14.05)"/></g><g class="cls-23"><rect class="cls-24" x="97.66" y="82.78" width="445.11" height="586.61"/></g><g class="cls-25"><path class="cls-26" d="M264.16,673.77l3.67.05c18.76.21,37.66-2.6,53.38-11.77a44,44,0,0,0,2.23,9.45c-14.33,7.71-32.61,12-55.72,11.67a55.8,55.8,0,0,1-3.56-9.4M408.7,411.54c-22.39,21.95-41.63,42.6-58.06,61.93,3.27,16.59,6.36,33.37,8.19,50.13.76,6.76,1.42,14,1.86,21.63C375,525.11,394,502.89,419.47,478.82l3.6-3.4c-3.29-16.88-7.18-33.65-11.14-50.37C410.88,420.57,409.79,416.06,408.7,411.54Z" transform="translate(-153.04 -14.05)"/></g><g class="cls-27"><path class="cls-26" d="M267.72,683.17c23.11.28,41.39-4,55.72-11.67-.17-.39-2.22-5.77-2.88-15.58h0c-16.12,17-52.84,27.25-52.84,27.25" transform="translate(-153.04 -14.05)"/></g><g class="cls-28"><path class="cls-29" d="M519.67,279.47c-16.19,32-46,70.57-93.76,115.55C256.43,554.56,250.7,648.52,267.72,683.17a146.87,146.87,0,0,0,24.09-1.55s-31.87-81,73.53-195.09c0,0-29.88,22.35-66.78,83.61,40.06-101.12,173.62-160.61,245-304.86,0,0-24.07,56.06-47.64,88.3,0,0,130.49-141.71,70.29-256.74,12.15,40.14-7.64,119.23-46.5,182.63" transform="translate(-153.04 -14.05)"/></g><g class="cls-30"><path class="cls-26" d="M307.48,678.08a88.11,88.11,0,0,0,16-6.58c-.61-1.51-28.57-74.82,96-192.68,65.16-61.63,276.34-271,163.24-369.75a129,129,0,0,0-16.54-12.23c79.27,84.09-31.8,248.64-94,312.69,28.87-33.68,72.67-106.83,72.67-106.83-65,101.18-236.2,228.31-245.68,335.67a189.46,189.46,0,0,1,20.21-46c-19.51,44.73-12.06,84.79-11.9,85.67" transform="translate(-153.04 -14.05)"/></g><g class="cls-31"><rect class="cls-32" x="222.37" y="393.18" width="245.59" height="323.13"/></g><g class="cls-33"><path class="cls-34" d="M386.64,714.05c-3.83-1.88-7.58-3.88-11.23-6,13.67-10.46,23.44-27.23,30.14-43.23a111.8,111.8,0,0,0,10.66,5A146.06,146.06,0,0,1,397,703.11a80.17,80.17,0,0,1-10.37,10.94" transform="translate(-153.04 -14.05)"/></g><g class="cls-35"><rect class="cls-36" x="223.46" y="650.73" width="29.05" height="42.36"/></g><g class="cls-37"><path class="cls-38" d="M489.91,407.24a157.77,157.77,0,0,1,16.45,4.18c-14.65,16.35-29.18,31.59-42.74,45.24a112.92,112.92,0,0,0-22.31,1.1c14.22-14,31.08-31.21,48.6-50.52" transform="translate(-153.04 -14.05)"/></g><g class="cls-39"><path class="cls-38" d="M489.91,407.24A163.16,163.16,0,1,1,375.41,708a71.44,71.44,0,0,0,10.48-10c69.58,29.56,154.42,33.18,211.5-63.8-28.88,50.06-83.73,68.34-83.73,68.34C627.4,651.37,640,500.39,537,435.25c25.27,20.45,33.33,38.26,33.33,38.26-30.56-35.37-91.17-54.59-91.17-54.59q5.34-5.7,10.76-11.68" transform="translate(-153.04 -14.05)"/></g><g class="cls-40"><path class="cls-34" d="M397.71,680.94a150.64,150.64,0,0,0,7.84-16.15c72.74,39.08,163-13.2,163-97.57,0-67.78-60.29-119.49-127.24-109.46,7.43-7.32,15.6-15.53,24.2-24.45,76.17,13,156.36,72.65,123.8,175.68,11.81-51.26-13-95.53-13-95.53,35.76,98-32.22,203.72-138.36,186.72,27.55,1.09,59.07-14.31,59.07-14.31-61.6,18.77-99.33-4.93-99.33-4.93" transform="translate(-153.04 -14.05)"/></g><g class="cls-41"><rect class="cls-42" x="114.68" y="197.78" width="159.59" height="522.64"/></g><g class="cls-43"><path class="cls-44" d="M368.14,522.58c9,82-2.45,161.74-100.42,160.59,0,0,58.3,23.72,96.27-31.83,0,0-8.42,23.7-27.42,36.44,97.44-43.54,32.5-228.29,21.65-306.06-5.77-41.39-20.21-103,31.28-169.88C299.41,287.6,357.65,427,368.14,522.58" transform="translate(-153.04 -14.05)"/></g><g class="cls-45"><path class="cls-46" d="M201.71,541.33c25.84,51.31,90.78,50.06,120,12.67,37.33-47.76,39.58-130.6,30.88-191-14.22-98.64-60.07-197.36-29.11-293,0,0-39,62.2-10.58,173.37,0,0-12.51-20-17.32-66.17,2.05,97.62,60.44,196.28,36.09,301.5-13.48,58.24-59.24,110.84-130,62.63" transform="translate(-153.04 -14.05)"/></g></svg>